HIERARCHY
ROOT Hips
{
	OFFSET 0.000000 0.000000 0.000000
	CHANNELS 6 Xposition Yposition Zposition Xrotation Yrotation Zrotation
	JOINT Spine
	{
		OFFSET 0.000000 0.042231 0.063346
		CHANNELS 3 Xrotation Yrotation Zrotation
		JOINT Spine1
		{
			OFFSET 0.000000 0.014667 0.083179
			CHANNELS 3 Xrotation Yrotation Zrotation
			JOINT Spine2
			{
				OFFSET 0.000000 0.007361 0.084141
				CHANNELS 3 Xrotation Yrotation Zrotation
				JOINT Spine3
				{
					OFFSET 0.000000 0.000000 0.084462
					CHANNELS 3 Xrotation Yrotation Zrotation
					JOINT Neck
					{
						OFFSET 0.000000 -0.031673 0.221713
						CHANNELS 3 Xrotation Yrotation Zrotation
						JOINT Head
						{
							OFFSET 0.000000 -0.020167 0.114371
							CHANNELS 3 Xrotation Yrotation Zrotation
							End Site
							{
								OFFSET 0.000000 0.000000 0.000000
							}
						}
					}
					JOINT RightShoulder
					{
						OFFSET -0.029161 -0.048602 0.157471
						CHANNELS 3 Xrotation Yrotation Zrotation
						JOINT RightArm
						{
							OFFSET -0.144834 0.000000 0.000000
							CHANNELS 3 Xrotation Yrotation Zrotation
							JOINT RightForeArm
							{
								OFFSET -0.274949 0.000000 0.000000
								CHANNELS 3 Xrotation Yrotation Zrotation
								JOINT RightHand
								{
									OFFSET -0.254725 0.000000 0.000000
									CHANNELS 3 Xrotation Yrotation Zrotation
									JOINT RightHandEnd
									{
										OFFSET -0.068160 0.000000 0.000000
										CHANNELS 3 Xrotation Yrotation Zrotation
										End Site
										{
											OFFSET 0.000000 0.000000 0.000000
										}
									}
									JOINT RightHandThumb1
									{
										OFFSET -0.027264 -0.045440 -0.018176
										CHANNELS 3 Xrotation Yrotation Zrotation
										End Site
										{
											OFFSET 0.000000 0.000000 0.000000
										}
									}
								}
							}
						}
					}
					JOINT LeftShoulder
					{
						OFFSET 0.029161 -0.048602 0.157471
						CHANNELS 3 Xrotation Yrotation Zrotation
						JOINT LeftArm
						{
							OFFSET 0.144834 0.000000 0.000000
							CHANNELS 3 Xrotation Yrotation Zrotation
							JOINT LeftForeArm
							{
								OFFSET 0.274949 0.000000 0.000000
								CHANNELS 3 Xrotation Yrotation Zrotation
								JOINT LeftHand
								{
									OFFSET 0.254725 0.000000 0.000000
									CHANNELS 3 Xrotation Yrotation Zrotation
									JOINT LeftHandEnd
									{
										OFFSET 0.068160 0.000000 0.000000
										CHANNELS 3 Xrotation Yrotation Zrotation
										End Site
										{
											OFFSET 0.000000 0.000000 0.000000
										}
									}
									JOINT LeftHandThumb1
									{
										OFFSET 0.027264 -0.045440 -0.018176
										CHANNELS 3 Xrotation Yrotation Zrotation
										End Site
										{
											OFFSET 0.000000 0.000000 0.000000
										}
									}
								}
							}
						}
					}
				}
			}
		}
	}
	JOINT RightUpLeg
	{
		OFFSET -0.086512 0.000000 -0.025273
		CHANNELS 3 Xrotation Yrotation Zrotation
		JOINT RightLeg
		{
			OFFSET 0.000000 0.000000 -0.433119
			CHANNELS 3 Xrotation Yrotation Zrotation
			JOINT RightFoot
			{
				OFFSET 0.000000 0.000000 -0.404688
				CHANNELS 3 Xrotation Yrotation Zrotation
				JOINT RightToeBase
				{
					OFFSET 0.000000 -0.126496 -0.046041
					CHANNELS 3 Xrotation Yrotation Zrotation
					End Site
					{
						OFFSET 0.000000 0.000000 0.000000
					}
				}
			}
		}
	}
	JOINT LeftUpLeg
	{
		OFFSET 0.086512 0.000000 -0.025273
		CHANNELS 3 Xrotation Yrotation Zrotation
		JOINT LeftLeg
		{
			OFFSET 0.000000 0.000000 -0.433119
			CHANNELS 3 Xrotation Yrotation Zrotation
			JOINT LeftFoot
			{
				OFFSET 0.000000 0.000000 -0.404688
				CHANNELS 3 Xrotation Yrotation Zrotation
				JOINT LeftToeBase
				{
					OFFSET 0.000000 -0.126496 -0.046041
					CHANNELS 3 Xrotation Yrotation Zrotation
					End Site
					{
						OFFSET 0.000000 0.000000 0.000000
					}
				}
			}
		}
	}
}
MOTION
Frames: 7
Frame Time: 0.033333
0.174767 -0.297261 0.413436 107.897800 -3.798900 3.921100 0.817700 2.574400 -0.736800 2.432800 0.356100 -0.152900 -3.179700 -1.138000 -1.431500 -1.576600 -0.842800 1.215300 -26.033200 13.719300 4.126700 -4.328900 -2.195000 2.170300 4.097400 31.663800 -9.990700 1.676300 -40.629600 20.000900 -0.000100 0.000100 117.384200 76.955300 72.474700 -58.959200 0.000000 0.000000 0.000000 0.000000 0.000000 0.000000 7.353100 -7.404000 9.490200 -3.724200 24.245100 -29.804500 -0.000100 -0.000100 -107.366600 90.595000 -79.560800 73.992700 0.000000 0.000000 0.000000 0.000000 0.000000 0.000000 -3.450200 10.258600 -13.806500 13.938400 0.000000 0.000000 4.248400 -10.969200 -12.357100 -1.672800 0.000000 0.000000 0.381100 -8.448200 13.350300 6.483600 0.000000 0.000000 8.385700 18.033600 12.030200 -2.966800 0.000000 0.000000 
0.173629 -0.295796 0.392016 108.095600 -3.797300 4.177500 0.606800 2.641300 -0.716600 2.254100 0.421800 -0.160000 -3.148700 -1.066500 -1.609200 -1.504100 -0.848900 1.213200 -26.295800 14.082100 4.142200 -4.166800 -2.579200 1.789600 5.249600 32.327500 -12.215700 4.096600 -42.181700 19.772300 -0.000100 0.000100 121.094200 77.325800 72.227900 -57.940100 0.000000 0.000000 0.000000 0.000000 0.000000 0.000000 7.970400 -7.198700 11.150500 -2.809600 24.402000 -28.907100 -0.000100 -0.000100 -111.010000 93.406700 -79.882600 75.764900 0.000000 0.000000 0.000000 0.000000 0.000000 0.000000 -2.945300 10.055200 -14.237200 14.087700 0.000000 0.000000 4.335400 -11.130200 -12.511500 -1.706200 0.000000 0.000000 0.875500 -8.470300 12.911900 6.619400 0.000000 0.000000 8.115100 17.599600 12.289500 -3.090200 0.000000 0.000000 
0.172750 -0.294411 0.373309 108.168800 -3.858300 4.200200 0.423200 2.725500 -0.730600 2.088200 0.500400 -0.172600 -3.139200 -0.993400 -1.875700 -1.414600 -0.858000 1.180100 -26.403500 14.315100 4.286600 -4.159400 -2.767700 1.678600 5.946700 32.417800 -13.681200 6.129000 -43.378600 19.851800 -0.000100 0.000100 123.970300 76.895600 71.917700 -56.025300 0.000000 0.000000 0.000000 0.000000 0.000000 0.000000 8.496200 -6.950500 12.926000 -1.886400 24.435500 -28.108300 -0.000100 -0.000100 -113.971400 96.234100 -80.001700 77.729300 0.000000 0.000000 0.000000 0.000000 0.000000 0.000000 -2.592400 9.938000 -14.460200 14.286700 0.000000 0.000000 4.267300 -11.126900 -12.690700 -1.818400 0.000000 0.000000 1.467000 -8.407300 12.812300 6.810000 0.000000 0.000000 7.804900 16.963800 12.668400 -3.559800 0.000000 0.000000 
0.172301 -0.293238 0.357904 108.137800 -3.913100 4.076400 0.268200 2.724100 -0.741300 1.935500 0.557500 -0.176000 -3.119300 -0.974100 -1.999200 -1.319500 -0.912600 1.183200 -26.499500 14.758500 4.661200 -4.322300 -3.013700 1.583300 6.433400 32.459900 -14.864400 7.947400 -44.124200 20.213200 -0.000100 0.000100 126.140000 76.361300 71.728400 -54.316400 0.000000 0.000000 0.000000 0.000000 0.000000 0.000000 8.833900 -6.656200 14.373000 -0.890000 24.176800 -27.478700 -0.000100 -0.000100 -116.153100 99.836300 -79.858700 80.775600 0.000000 0.000000 0.000000 0.000000 0.000000 0.000000 -2.358300 9.857500 -14.390300 14.582900 0.000000 0.000000 4.122000 -10.930000 -12.947000 -1.838500 0.000000 0.000000 2.030700 -8.317900 12.920900 7.051700 0.000000 0.000000 7.537100 16.528900 13.045900 -3.718500 0.000000 0.000000 
0.172357 -0.292349 0.346159 108.027100 -3.970300 3.959800 0.137300 2.683300 -0.729000 1.818400 0.585100 -0.160100 -3.100200 -0.994100 -1.929600 -1.245800 -1.009700 1.248200 -26.557900 15.308200 5.032900 -4.457800 -3.310500 1.282200 6.962200 32.718000 -16.021400 9.583000 -44.543200 20.704500 -0.000100 0.000100 127.648400 76.406700 71.720400 -53.638800 0.000000 0.000000 0.000000 0.000000 0.000000 0.000000 8.971500 -6.422600 15.212900 0.185000 23.669000 -27.140900 -0.000100 -0.000100 -117.541000 103.801500 -79.721100 84.421200 0.000000 0.000000 0.000000 0.000000 0.000000 0.000000 -2.196100 9.825000 -14.102200 14.944900 0.000000 0.000000 4.021700 -10.663000 -13.203300 -1.835600 0.000000 0.000000 2.460900 -8.209100 12.947200 7.287400 0.000000 0.000000 7.395200 16.606300 13.388000 -3.317300 0.000000 0.000000 
0.172750 -0.291709 0.338272 107.829700 -4.083000 3.918300 0.040200 2.703600 -0.703800 1.711200 0.610100 -0.143800 -3.099100 -1.023000 -1.806500 -1.198300 -1.073300 1.298800 -26.506300 15.604300 5.189300 -4.408200 -3.477200 0.947900 7.324500 33.016200 -16.870500 10.990600 -44.675500 21.345300 -0.000100 0.000100 128.363000 76.822000 71.857100 -53.701900 0.000000 0.000000 0.000000 0.000000 0.000000 0.000000 8.993200 -6.338300 15.628400 1.215200 23.005300 -27.206400 -0.000100 -0.000100 -118.139300 107.285400 -79.653600 87.820900 0.000000 0.000000 0.000000 0.000000 0.000000 0.000000 -2.049900 9.875800 -13.813000 15.242500 0.000000 0.000000 4.006300 -10.490600 -13.319000 -1.952000 0.000000 0.000000 2.762200 -8.058100 12.974600 7.392900 0.000000 0.000000 7.461800 16.974900 13.619200 -3.036000 0.000000 0.000000 
0.173175 -0.291219 0.334310 107.546700 -4.210100 3.958700 -0.064400 2.761300 -0.672100 1.602700 0.638700 -0.142300 -3.107000 -1.023300 -1.795600 -1.155900 -1.065300 1.288600 -26.486200 15.524800 5.192000 -4.157200 -3.442100 0.844200 7.137800 33.117200 -17.111600 12.168700 -44.329700 22.304800 -0.000100 0.000100 128.170600 77.130300 72.066100 -54.053900 0.000000 0.000000 0.000000 0.000000 0.000000 0.000000 8.931800 -6.449900 15.837100 2.097500 22.342200 -27.665200 -0.000100 -0.000100 -117.963500 109.514400 -79.646000 90.244900 0.000000 0.000000 0.000000 0.000000 0.000000 0.000000 -1.885200 9.947700 -13.713600 15.381000 0.000000 0.000000 4.057800 -10.453800 -13.304700 -2.067600 0.000000 0.000000 2.942900 -7.935100 13.284900 7.360200 0.000000 0.000000 7.717100 17.119900 13.664200 -3.443300 0.000000 0.000000 
